# xmcd
#
# Track frame offsets: 
#        150
#        17043
#        30636
#        45568
#        63655
#        79399
#        91340
#        108532
#        126642
#        144797
#        169176
#        187621
#        202752
#        217232
#        241941
#        261861
#        278818
#        292527
#        307924
#        331409
#
# Disc length: 4636 seconds
#
# Revision: 0
# Processed by: cddbd v1.5.2PL0 Copyright (c) Steve Scherf et al.
# Submitted via: ExactAudioCopy v1.1
#
DISCID=19121a14
DTITLE=Various Artist - 1000 Klassiekers Radio 2 Vol. 05 - CD 1
DYEAR=2013
DGENRE=Pop
TTITLE0=Lou Reed - Perfect Day
TTITLE1=Adamo - Vous Permettez, Monsieur?
TTITLE2=Cat Stevens - Morning Has Broken
TTITLE3=Chris Rea - Driving Home For Christmas
TTITLE4=Barry White - You See The Trouble With Me
TTITLE5=Gerry and The Pacemakers - You'll Never Walk Alone
TTITLE6=Novastar - The Best Is Yet To Come
TTITLE7=Louis Neefs - Margrietje (De Rozen Zullen Bloeien)
TTITLE8=Procol Harum - A Whiter Shade Of Pale
TTITLE9=Eros Ramazzotti - Se Bastasse Una Canzone
TTITLE10=Dalida and Alain Delon - Paroles, Paroles
TTITLE11=Patrick Hernandez - Born To Be Alive
TTITLE12=Marvin Gaye - I Heard It Through The Grapevine
TTITLE13=dEUS - Nothing Really Ends
TTITLE14=Culture Club - Do You Really Want To Hurt Me
TTITLE15=Frank Boeijen - Koud In Mijn Hart
TTITLE16=The Love Affair - Everlasting Love
TTITLE17=Stealers Wheel - Stuck In The Middle With You
TTITLE18=Joe Cocker - With A Little Help From My Friends
TTITLE19=Vaya Con Dios - Heading For A Fall
EXTD=
EXTT0=
EXTT1=
EXTT2=
EXTT3=
EXTT4=
EXTT5=
EXTT6=
EXTT7=
EXTT8=
EXTT9=
EXTT10=
EXTT11=
EXTT12=
EXTT13=
EXTT14=
EXTT15=
EXTT16=
EXTT17=
EXTT18=
EXTT19=
PLAYORDER=
